<svg data-v-fde0c5aa="" xmlns="http://www.w3.org/2000/svg" viewBox="0 0 300 300" class="font"><!----><defs data-v-fde0c5aa=""><!----></defs><rect data-v-fde0c5aa="" fill="#F3F3EF" x="0" y="0" width="300px" height="300px" class="logo-background-square"></rect><defs data-v-fde0c5aa=""><linearGradient data-v-fde0c5aa="" gradientTransform="rotate(25)" id="1f52920f-ef03-487e-8083-96c01371659f" x1="0%" y1="0%" x2="100%" y2="0%"><stop data-v-fde0c5aa="" offset="0%" stop-color="#945069" stop-opacity="1"></stop><stop data-v-fde0c5aa="" offset="100%" stop-color="#86C866" stop-opacity="1"></stop></linearGradient></defs><g data-v-fde0c5aa="" id="c65c1920-bdfe-409b-b5eb-10e145763a68" fill="url(#1f52920f-ef03-487e-8083-96c01371659f)" transform="matrix(1.881145837886289,0,0,1.881145837886289,40.99700724025972,134.2736209926107)"><path d="M6.34 5.18L6.34 5.18L6.34 5.18Q6.59 5.01 7.64 4.25L7.64 4.25L7.64 4.25Q8.64 4.96 10.40 11.50L10.40 11.50L10.40 11.50Q10.52 11.96 10.59 12.23L10.59 12.23L10.59 12.23Q10.72 11.92 10.94 11.43L10.94 11.43L10.94 11.43Q11.17 10.95 11.43 10.38L11.43 10.38L11.43 10.38Q11.70 9.82 11.97 9.21L11.97 9.21L11.97 9.21Q12.24 8.60 12.46 8.04L12.46 8.04L12.46 8.04Q12.95 6.79 12.95 6.28L12.95 6.28L12.95 6.28Q12.95 5.49 12.44 5.14L12.44 5.14L12.44 5.14Q12.27 5.02 12.09 5.02L12.09 5.02L12.09 5.02Q11.79 5.02 11.54 5.14L11.54 5.14L11.54 5.14Q11.76 5.02 11.97 4.85L11.97 4.85L11.97 4.85Q12.17 4.68 12.37 4.51L12.37 4.51L12.37 4.51Q12.88 4.11 13.31 4.11L13.31 4.11L13.31 4.11Q13.75 4.11 14.03 4.46L14.03 4.46L14.03 4.46Q14.29 4.77 14.29 5.23L14.29 5.23L14.29 5.23Q14.29 6.05 12.25 10.57L12.25 10.57L12.25 10.57Q11.55 12.11 11.46 12.34L11.46 12.34L11.46 12.34Q11.38 12.56 11.29 12.77L11.29 12.77L11.29 12.77Q11.07 13.25 10.97 13.39L10.97 13.39L10.97 13.39Q10.87 13.54 10.69 13.67L10.69 13.67L10.69 13.67Q10.51 13.79 10.29 13.94L10.29 13.94L10.29 13.94Q10.07 14.09 9.86 14.22L9.86 14.22L9.86 14.22Q9.66 14.36 9.58 14.42L9.58 14.42L9.58 14.42Q9.37 13.61 9.17 12.80L9.17 12.80L9.17 12.80Q8.97 12.00 8.75 11.20L8.75 11.20L8.75 11.20Q8.29 9.50 7.76 8.04L7.76 8.04L7.76 8.04Q7.28 9.34 6.57 10.90L6.57 10.90L6.57 10.90Q5.86 12.46 5.70 12.83L5.70 12.83L5.70 12.83Q5.54 13.21 5.34 13.49L5.34 13.49L5.34 13.49Q5.26 13.60 4.68 13.98L4.68 13.98L4.68 13.98Q4.09 14.36 4.01 14.42L4.01 14.42L4.01 14.42Q3.94 14.10 3.81 13.54L3.81 13.54L3.81 13.54Q3.69 12.97 3.53 12.26L3.53 12.26L3.53 12.26Q3.36 11.54 3.16 10.73L3.16 10.73L3.16 10.73Q2.95 9.93 2.71 9.13L2.71 9.13L2.71 9.13Q2.46 8.33 2.18 7.59L2.18 7.59L2.18 7.59Q1.90 6.86 1.59 6.30L1.59 6.30L1.59 6.30Q0.90 5.08 0.21 5.08L0.21 5.08L0.21 5.08Q-0.14 5.08-0.53 5.30L-0.53 5.30L-0.53 5.30Q0.14 4.61 1.07 4.25L1.07 4.25L1.07 4.25Q1.37 4.13 1.60 4.13L1.60 4.13L1.60 4.13Q2.19 4.13 2.71 4.95L2.71 4.95L2.71 4.95Q3.16 5.69 3.47 6.57L3.47 6.57L3.47 6.57Q3.77 7.46 3.96 8.06L3.96 8.06L3.96 8.06Q4.14 8.67 4.31 9.27L4.31 9.27L4.31 9.27Q4.47 9.88 4.61 10.43L4.61 10.43L4.61 10.43Q4.81 11.22 5.04 12.24L5.04 12.24L5.04 12.24Q5.20 11.88 5.40 11.44L5.40 11.44L5.40 11.44Q5.61 10.99 5.81 10.51L5.81 10.51L5.81 10.51Q6.02 10.03 6.22 9.52L6.22 9.52L6.22 9.52Q6.42 9.02 6.58 8.52L6.58 8.52L6.58 8.52Q6.92 7.42 6.92 6.73L6.92 6.73L6.92 6.73Q6.92 5.73 6.34 5.18ZM19.71 12.82L19.71 12.82L19.71 12.82Q18.77 13.86 17.38 14.12L17.38 14.12L17.38 14.12Q17.06 14.18 16.59 14.18L16.59 14.18L16.59 14.18Q16.12 14.18 15.70 13.91L15.70 13.91L15.70 13.91Q15.29 13.65 15.02 13.23L15.02 13.23L15.02 13.23Q14.51 12.43 14.51 11.27L14.51 11.27L14.51 11.27Q14.51 10.50 15.10 9.57L15.10 9.57L15.10 9.57Q15.67 8.65 16.50 8.04L16.50 8.04L16.50 8.04Q17.39 7.38 18.18 7.38L18.18 7.38L18.18 7.38Q18.59 7.38 18.87 7.68L18.87 7.68L18.87 7.68Q19.13 7.98 19.13 8.35L19.13 8.35L19.13 8.35Q19.13 8.73 18.97 9.05L18.97 9.05L18.97 9.05Q18.81 9.37 18.54 9.67L18.54 9.67L18.54 9.67Q18.28 9.97 17.94 10.24L17.94 10.24L17.94 10.24Q17.60 10.52 17.25 10.76L17.25 10.76L17.25 10.76Q16.75 11.10 15.99 11.53L15.99 11.53L15.99 11.53Q16.21 12.36 16.76 12.81L16.76 12.81L16.76 12.81Q17.32 13.25 18.19 13.25L18.19 13.25L18.19 13.25Q18.93 13.25 19.71 12.82ZM17.64 10.08L17.64 10.08L17.64 10.08Q17.83 9.78 17.83 9.50L17.83 9.50L17.83 9.50Q17.83 9.22 17.77 9.03L17.77 9.03L17.77 9.03Q17.71 8.83 17.59 8.68L17.59 8.68L17.59 8.68Q17.32 8.34 16.90 8.34L16.90 8.34L16.90 8.34Q15.86 8.34 15.86 10.46L15.86 10.46L15.86 10.46Q15.86 10.83 15.92 11.20L15.92 11.20L15.92 11.20Q17.12 10.87 17.64 10.08ZM25.13 9.28L25.13 12.06L25.12 12.54L25.12 12.54Q25.12 13.07 25.42 13.21L25.42 13.21L25.42 13.21Q25.53 13.27 25.68 13.27L25.68 13.27L25.68 13.27Q25.92 13.27 26.17 13.16L26.17 13.16L26.17 13.16Q25.92 13.27 25.72 13.45L25.72 13.45L25.72 13.45Q25.53 13.62 25.33 13.79L25.33 13.79L25.33 13.79Q24.84 14.21 24.34 14.21L24.34 14.21L24.34 14.21Q23.84 14.21 23.81 13.63L23.81 13.63L23.81 13.63Q23.80 13.48 23.80 13.33L23.80 13.33L23.80 13.33Q22.57 14.18 21.54 14.18L21.54 14.18L21.54 14.18Q20.67 14.18 20.34 13.66L20.34 13.66L20.34 13.66Q20.21 13.47 20.21 13.13L20.21 13.13L20.21 13.13Q20.21 12.80 20.42 12.46L20.42 12.46L20.42 12.46Q20.62 12.12 20.94 11.84L20.94 11.84L20.94 11.84Q21.50 11.32 22.29 10.99L22.29 10.99L22.29 10.99Q22.88 10.73 23.80 10.70L23.80 10.70L23.80 10.40L23.80 10.40Q23.80 9.31 23.60 8.93L23.60 8.93L23.60 8.93Q23.41 8.54 23.09 8.36L23.09 8.36L23.09 8.36Q22.78 8.18 22.35 8.18L22.35 8.18L22.35 8.18Q21.64 8.18 21.09 8.46L21.09 8.46L21.09 8.46Q21.84 7.84 22.19 7.64L22.19 7.64L22.19 7.64Q22.91 7.24 23.49 7.24L23.49 7.24L23.49 7.24Q24.08 7.24 24.37 7.41L24.37 7.41L24.37 7.41Q24.66 7.58 24.83 7.86L24.83 7.86L24.83 7.86Q25.13 8.35 25.13 9.28L25.13 9.28ZM21.92 13.04L21.92 13.04L21.92 13.04Q22.08 13.16 22.30 13.21L22.30 13.21L22.30 13.21Q22.52 13.27 22.95 13.27L22.95 13.27L22.95 13.27Q23.38 13.27 23.80 13.06L23.80 13.06L23.80 11.63L22.70 11.63L22.70 11.63Q22.10 11.63 21.66 11.71L21.66 11.71L21.66 11.71Q21.57 12.00 21.57 12.27L21.57 12.27L21.57 12.27Q21.57 12.54 21.66 12.73L21.66 12.73L21.66 12.73Q21.75 12.92 21.92 13.04ZM27.55 8.16L26.66 8.16L27.55 7.46L27.55 6.49L27.55 6.49Q27.92 6.23 28.08 6.09L28.08 6.09L28.08 6.09Q28.23 5.95 28.34 5.89L28.34 5.89L28.34 5.89Q28.45 5.83 28.57 5.76L28.57 5.76L28.57 5.76Q28.86 5.59 28.88 5.56L28.88 5.56L28.88 7.23L31.07 7.23L31.07 7.23Q30.98 7.23 30.62 7.55L30.62 7.55L30.62 7.55Q29.93 8.16 29.74 8.16L29.74 8.16L28.88 8.16L28.88 11.82L28.88 11.82Q28.88 13.08 29.61 13.28L29.61 13.28L29.61 13.28Q29.83 13.33 30.02 13.33L30.02 13.33L30.02 13.33Q30.33 13.33 30.55 13.24L30.55 13.24L30.55 13.24Q30.77 13.15 30.91 13.07L30.91 13.07L30.91 13.07Q30.50 13.71 29.74 14.04L29.74 14.04L29.74 14.04Q29.35 14.21 28.91 14.21L28.91 14.21L28.91 14.21Q28.46 14.21 28.21 14.05L28.21 14.05L28.21 14.05Q27.97 13.90 27.82 13.64L27.82 13.64L27.82 13.64Q27.55 13.18 27.55 12.41L27.55 12.41L27.55 8.16ZM33.38 10.53L33.38 12.59L33.38 12.59Q33.38 13.28 33.78 13.28L33.78 13.28L33.78 13.28Q33.91 13.28 34.19 13.16L34.19 13.16L34.19 13.16Q33.93 13.75 33.39 14.05L33.39 14.05L33.39 14.05Q33.12 14.21 32.81 14.19L32.81 14.19L32.81 14.19Q32.50 14.18 32.37 14.03L32.37 14.03L32.37 14.03Q32.24 13.88 32.16 13.67L32.16 13.67L32.16 13.67Q32.05 13.33 32.05 12.80L32.05 12.80L32.05 5.00L32.05 5.00Q32.05 4.27 31.80 4.03L31.80 4.03L31.80 4.03Q31.68 3.92 31.51 3.92L31.51 3.92L31.51 3.92Q31.21 3.92 30.86 4.02L30.86 4.02L30.86 4.02Q31.70 3.36 33.38 2.30L33.38 2.30L33.38 8.57L33.38 8.57Q34.23 7.82 35.13 7.55L35.13 7.55L35.13 7.55Q35.46 7.44 35.77 7.44L35.77 7.44L35.77 7.44Q36.07 7.44 36.35 7.54L36.35 7.54L36.35 7.54Q36.63 7.64 36.85 7.82L36.85 7.82L36.85 7.82Q37.33 8.22 37.33 8.83L37.33 8.83L37.33 12.30L37.33 12.30Q37.33 13.21 37.77 13.30L37.77 13.30L37.77 13.30Q37.89 13.33 38.03 13.33L38.03 13.33L38.03 13.33Q38.24 13.33 38.62 13.16L38.62 13.16L38.62 13.16Q38.06 13.88 37.30 14.11L37.30 14.11L37.30 14.11Q37.04 14.19 36.75 14.19L36.75 14.19L36.75 14.19Q36.45 14.19 36.29 14.05L36.29 14.05L36.29 14.05Q36.12 13.90 36.06 13.69L36.06 13.69L36.06 13.69Q36.00 13.47 36.00 13.21L36.00 13.21L36.00 10.14L36.00 10.14Q36.00 9.10 35.68 8.74L35.68 8.74L35.68 8.74Q35.38 8.39 34.59 8.39L34.59 8.39L34.59 8.39Q33.53 8.39 33.41 9.84L33.41 9.84L33.41 9.84Q33.38 10.21 33.38 10.53L33.38 10.53ZM44.30 12.82L44.30 12.82L44.30 12.82Q43.37 13.86 41.98 14.12L41.98 14.12L41.98 14.12Q41.66 14.18 41.19 14.18L41.19 14.18L41.19 14.18Q40.71 14.18 40.30 13.91L40.30 13.91L40.30 13.91Q39.88 13.65 39.61 13.23L39.61 13.23L39.61 13.23Q39.11 12.43 39.11 11.27L39.11 11.27L39.11 11.27Q39.11 10.50 39.70 9.57L39.70 9.57L39.70 9.57Q40.27 8.65 41.10 8.04L41.10 8.04L41.10 8.04Q41.99 7.38 42.78 7.38L42.78 7.38L42.78 7.38Q43.19 7.38 43.47 7.68L43.47 7.68L43.47 7.68Q43.73 7.98 43.73 8.35L43.73 8.35L43.73 8.35Q43.73 8.73 43.57 9.05L43.57 9.05L43.57 9.05Q43.40 9.37 43.14 9.67L43.14 9.67L43.14 9.67Q42.88 9.97 42.54 10.24L42.54 10.24L42.54 10.24Q42.20 10.52 41.84 10.76L41.84 10.76L41.84 10.76Q41.34 11.10 40.58 11.53L40.58 11.53L40.58 11.53Q40.80 12.36 41.36 12.81L41.36 12.81L41.36 12.81Q41.91 13.25 42.79 13.25L42.79 13.25L42.79 13.25Q43.52 13.25 44.30 12.82ZM42.24 10.08L42.24 10.08L42.24 10.08Q42.42 9.78 42.42 9.50L42.42 9.50L42.42 9.50Q42.42 9.22 42.36 9.03L42.36 9.03L42.36 9.03Q42.30 8.83 42.18 8.68L42.18 8.68L42.18 8.68Q41.92 8.34 41.49 8.34L41.49 8.34L41.49 8.34Q40.46 8.34 40.46 10.46L40.46 10.46L40.46 10.46Q40.46 10.83 40.52 11.20L40.52 11.20L40.52 11.20Q41.72 10.87 42.24 10.08ZM51.21 7.44L51.21 7.44L51.21 7.44Q50.38 8.65 49.21 8.65L49.21 8.65L49.21 8.65Q49.01 8.65 48.71 8.50L48.71 8.50L48.71 8.50Q48.14 8.22 47.94 8.22L47.94 8.22L47.94 8.22Q47.74 8.22 47.61 8.35L47.61 8.35L47.61 8.35Q47.49 8.48 47.41 8.71L47.41 8.71L47.41 8.71Q47.22 9.21 47.22 10.02L47.22 10.02L47.22 12.64L47.22 12.64Q47.22 13.08 47.49 13.23L47.49 13.23L47.49 13.23Q47.58 13.30 47.73 13.30L47.73 13.30L47.73 13.30Q47.87 13.30 48.03 13.23L48.03 13.23L48.03 13.23Q47.89 13.35 47.76 13.52L47.76 13.52L47.76 13.52Q47.63 13.69 47.47 13.84L47.47 13.84L47.47 13.84Q47.08 14.22 46.55 14.22L46.55 14.22L46.55 14.22Q46.27 14.22 46.08 14.04L46.08 14.04L46.08 14.04Q45.89 13.87 45.89 13.62L45.89 13.62L45.89 9.68L45.89 9.68Q45.89 9.44 45.90 9.20L45.90 9.20L45.90 9.20Q45.90 8.96 45.85 8.76L45.85 8.76L45.85 8.76Q45.72 8.33 45.10 8.33L45.10 8.33L45.10 8.33Q44.81 8.33 44.52 8.44L44.52 8.44L44.52 8.44Q44.69 8.38 44.97 8.12L44.97 8.12L44.97 8.12Q45.52 7.63 45.73 7.55L45.73 7.55L45.73 7.55Q46.17 7.39 46.44 7.39L46.44 7.39L46.44 7.39Q46.71 7.39 46.86 7.47L46.86 7.47L46.86 7.47Q47.00 7.55 47.09 7.68L47.09 7.68L47.09 7.68Q47.22 7.91 47.22 8.38L47.22 8.38L47.22 8.38Q47.42 8.23 47.66 8.04L47.66 8.04L47.66 8.04Q47.89 7.85 48.15 7.68L48.15 7.68L48.15 7.68Q48.75 7.28 49.21 7.28L49.21 7.28L49.21 7.28Q49.47 7.28 49.77 7.43L49.77 7.43L49.77 7.43Q50.06 7.58 50.20 7.65L50.20 7.65L50.20 7.65Q50.35 7.72 50.47 7.72L50.47 7.72L50.47 7.72Q50.74 7.72 51.21 7.44ZM59.54 9.96L59.54 9.96Q59.07 10.22 58.55 10.35L58.55 10.35L58.55 10.35Q58.04 10.48 57.67 10.48L57.67 10.48L57.67 10.48Q57.31 10.48 57.12 10.47L57.12 10.47L57.12 10.47Q57.12 10.85 57.12 11.21L57.12 11.21L57.12 11.21Q57.13 11.57 57.07 11.91L57.07 11.91L57.07 11.91Q56.93 12.66 56.39 13.15L56.39 13.15L58.54 13.14L58.54 13.14Q58.45 13.16 58.28 13.31L58.28 13.31L58.28 13.31Q58.11 13.46 57.91 13.63L57.91 13.63L57.91 13.63Q57.39 14.08 57.22 14.08L57.22 14.08L55.05 14.08L55.05 14.08Q55.52 13.65 55.64 13.36L55.64 13.36L55.64 13.36Q55.79 12.95 55.79 12.25L55.79 12.25L55.79 5.17L54.22 5.17L54.22 5.17Q55.30 4.25 55.54 4.25L55.54 4.25L59.21 4.25L59.21 4.25Q60.42 4.25 61.25 4.84L61.25 4.84L61.25 4.84Q62.17 5.50 62.17 6.68L62.17 6.68L62.17 6.68Q62.17 7.75 61.33 8.65L61.33 8.65L61.33 8.65Q60.75 9.28 59.54 9.96L59.54 9.96ZM60.85 7.57L60.85 7.57L60.85 7.57Q60.85 5.17 57.42 5.17L57.42 5.17L57.12 5.17L57.12 9.22L57.12 9.22Q57.37 9.24 57.82 9.35L57.82 9.35L57.82 9.35Q58.60 9.54 59.05 9.54L59.05 9.54L59.05 9.54Q59.50 9.54 59.85 9.43L59.85 9.43L59.85 9.43Q60.20 9.32 60.42 9.08L60.42 9.08L60.42 9.08Q60.85 8.63 60.85 7.57ZM69.04 7.44L69.04 7.44L69.04 7.44Q68.21 8.65 67.03 8.65L67.03 8.65L67.03 8.65Q66.84 8.65 66.54 8.50L66.54 8.50L66.54 8.50Q65.97 8.22 65.77 8.22L65.77 8.22L65.77 8.22Q65.56 8.22 65.44 8.35L65.44 8.35L65.44 8.35Q65.32 8.48 65.24 8.71L65.24 8.71L65.24 8.71Q65.05 9.21 65.05 10.02L65.05 10.02L65.05 12.64L65.05 12.64Q65.05 13.08 65.32 13.23L65.32 13.23L65.32 13.23Q65.41 13.30 65.56 13.30L65.56 13.30L65.56 13.30Q65.70 13.30 65.86 13.23L65.86 13.23L65.86 13.23Q65.72 13.35 65.59 13.52L65.59 13.52L65.59 13.52Q65.46 13.69 65.30 13.84L65.30 13.84L65.30 13.84Q64.91 14.22 64.37 14.22L64.37 14.22L64.37 14.22Q64.10 14.22 63.91 14.04L63.91 14.04L63.91 14.04Q63.72 13.87 63.72 13.62L63.72 13.62L63.72 9.68L63.72 9.68Q63.72 9.44 63.72 9.20L63.72 9.20L63.72 9.20Q63.73 8.96 63.68 8.76L63.68 8.76L63.68 8.76Q63.55 8.33 62.93 8.33L62.93 8.33L62.93 8.33Q62.64 8.33 62.34 8.44L62.34 8.44L62.34 8.44Q62.52 8.38 62.80 8.12L62.80 8.12L62.80 8.12Q63.35 7.63 63.56 7.55L63.56 7.55L63.56 7.55Q64.00 7.39 64.27 7.39L64.27 7.39L64.27 7.39Q64.54 7.39 64.69 7.47L64.69 7.47L64.69 7.47Q64.83 7.55 64.91 7.68L64.91 7.68L64.91 7.68Q65.05 7.91 65.05 8.38L65.05 8.38L65.05 8.38Q65.25 8.23 65.48 8.04L65.48 8.04L65.48 8.04Q65.72 7.85 65.97 7.68L65.97 7.68L65.97 7.68Q66.58 7.28 67.03 7.28L67.03 7.28L67.03 7.28Q67.30 7.28 67.59 7.43L67.59 7.43L67.59 7.43Q67.89 7.58 68.03 7.65L68.03 7.65L68.03 7.65Q68.17 7.72 68.30 7.72L68.30 7.72L68.30 7.72Q68.57 7.72 69.04 7.44ZM73.69 12.82L73.69 12.82L73.69 12.82Q72.75 13.86 71.37 14.12L71.37 14.12L71.37 14.12Q71.05 14.18 70.57 14.18L70.57 14.18L70.57 14.18Q70.10 14.18 69.69 13.91L69.69 13.91L69.69 13.91Q69.27 13.65 69.00 13.23L69.00 13.23L69.00 13.23Q68.50 12.43 68.50 11.27L68.50 11.27L68.50 11.27Q68.50 10.50 69.08 9.57L69.08 9.57L69.08 9.57Q69.66 8.65 70.49 8.04L70.49 8.04L70.49 8.04Q71.37 7.38 72.17 7.38L72.17 7.38L72.17 7.38Q72.58 7.38 72.86 7.68L72.86 7.68L72.86 7.68Q73.12 7.98 73.12 8.35L73.12 8.35L73.12 8.35Q73.12 8.73 72.95 9.05L72.95 9.05L72.95 9.05Q72.79 9.37 72.53 9.67L72.53 9.67L72.53 9.67Q72.26 9.97 71.92 10.24L71.92 10.24L71.92 10.24Q71.59 10.52 71.23 10.76L71.23 10.76L71.23 10.76Q70.73 11.10 69.97 11.53L69.97 11.53L69.97 11.53Q70.19 12.36 70.75 12.81L70.75 12.81L70.75 12.81Q71.30 13.25 72.17 13.25L72.17 13.25L72.17 13.25Q72.91 13.25 73.69 12.82ZM71.63 10.08L71.63 10.08L71.63 10.08Q71.81 9.78 71.81 9.50L71.81 9.50L71.81 9.50Q71.81 9.22 71.75 9.03L71.75 9.03L71.75 9.03Q71.69 8.83 71.57 8.68L71.57 8.68L71.57 8.68Q71.31 8.34 70.88 8.34L70.88 8.34L70.88 8.34Q69.84 8.34 69.84 10.46L69.84 10.46L69.84 10.46Q69.84 10.83 69.90 11.20L69.90 11.20L69.90 11.20Q71.11 10.87 71.63 10.08ZM76.75 7.86L76.75 7.86Q77.23 7.59 77.75 7.45L77.75 7.45L77.75 7.45Q78.28 7.30 78.64 7.30L78.64 7.30L78.64 7.30Q79.00 7.30 79.28 7.35L79.28 7.35L79.28 5.11L79.28 5.11Q79.28 4.38 79.01 4.14L79.01 4.14L79.01 4.14Q78.89 4.03 78.71 4.03L78.71 4.03L78.71 4.03Q78.50 4.03 78.09 4.13L78.09 4.13L78.09 4.13Q79.80 2.82 80.60 2.41L80.60 2.41L80.60 12.19L80.60 12.19Q80.60 12.74 80.72 12.92L80.72 12.92L80.72 12.92Q80.92 13.26 81.43 13.26L81.43 13.26L81.43 13.26Q81.63 13.26 81.83 13.22L81.83 13.22L81.83 13.22Q81.63 13.38 81.44 13.55L81.44 13.55L81.44 13.55Q81.25 13.72 81.03 13.86L81.03 13.86L81.03 13.86Q80.55 14.19 80.18 14.19L80.18 14.19L80.18 14.19Q79.81 14.19 79.65 14.12L79.65 14.12L79.65 14.12Q79.49 14.05 79.40 13.92L79.40 13.92L79.40 13.92Q79.26 13.73 79.26 13.18L79.26 13.18L79.26 13.18Q77.86 14.22 77.01 14.22L77.01 14.22L77.01 14.22Q75.76 14.22 75.10 13.38L75.10 13.38L75.10 13.38Q74.48 12.62 74.48 11.33L74.48 11.33L74.48 11.33Q74.48 10.28 75.14 9.32L75.14 9.32L75.14 9.32Q75.75 8.42 76.75 7.86L76.75 7.86ZM79.28 12.60L79.28 9.21L79.28 9.21Q78.97 8.72 78.48 8.47L78.48 8.47L78.48 8.47Q77.98 8.22 77.45 8.22L77.45 8.22L77.45 8.22Q76.92 8.22 76.60 8.40L76.60 8.40L76.60 8.40Q76.29 8.58 76.11 8.88L76.11 8.88L76.11 8.88Q75.80 9.40 75.80 10.18L75.80 10.18L75.80 10.18Q75.80 10.96 75.94 11.49L75.94 11.49L75.94 11.49Q76.08 12.02 76.37 12.43L76.37 12.43L76.37 12.43Q77.01 13.30 78.25 13.30L78.25 13.30L78.25 13.30Q78.52 13.30 78.78 13.14L78.78 13.14L78.78 13.14Q79.28 12.85 79.28 12.60L79.28 12.60ZM83.21 3.41L84.53 2.48L84.57 3.26L84.57 3.62L84.57 3.62Q84.57 3.94 84.49 4.02L84.49 4.02L84.49 4.02Q84.41 4.09 84.31 4.16L84.31 4.16L84.31 4.16Q83.93 4.43 83.21 4.89L83.21 4.89L83.21 4.89Q83.24 4.21 83.24 4.19L83.24 4.19L83.24 4.19Q83.24 4.16 83.21 3.41L83.21 3.41ZM85.96 13.24L85.96 13.24L85.96 13.24Q85.76 13.41 85.56 13.58L85.56 13.58L85.56 13.58Q85.37 13.75 85.16 13.89L85.16 13.89L85.16 13.89Q84.66 14.21 84.21 14.21L84.21 14.21L84.21 14.21Q83.79 14.21 83.62 14.08L83.62 14.08L83.62 14.08Q83.27 13.82 83.27 13.13L83.27 13.13L83.27 9.88L83.27 9.88Q83.27 9.15 83.00 8.93L83.00 8.93L83.00 8.93Q82.88 8.83 82.74 8.83L82.74 8.83L82.74 8.83Q82.59 8.83 82.49 8.84L82.49 8.84L82.49 8.84Q82.39 8.86 82.29 8.88L82.29 8.88L82.29 8.88Q82.19 8.90 82.08 8.92L82.08 8.92L82.08 8.92Q82.42 8.65 82.72 8.44L82.72 8.44L82.72 8.44Q83.02 8.23 83.23 8.09L83.23 8.09L83.23 8.09Q83.44 7.94 83.82 7.68L83.82 7.68L83.82 7.68Q84.19 7.42 84.59 7.21L84.59 7.21L84.59 12.03L84.59 12.03Q84.59 12.73 84.68 12.91L84.68 12.91L84.68 12.91Q84.88 13.29 85.53 13.29L85.53 13.29L85.53 13.29Q85.71 13.29 85.96 13.24ZM90.84 8.79L90.84 8.79L90.84 8.79Q90.98 8.65 90.98 8.59L90.98 8.59L90.98 8.59Q90.98 8.52 90.89 8.46L90.89 8.46L90.89 8.46Q90.79 8.39 90.65 8.34L90.65 8.34L90.65 8.34Q90.50 8.29 90.32 8.25L90.32 8.25L90.32 8.25Q90.15 8.20 89.98 8.18L89.98 8.18L89.98 8.18Q89.63 8.11 89.31 8.11L89.31 8.11L89.31 8.11Q88.99 8.11 88.66 8.30L88.66 8.30L88.66 8.30Q88.33 8.50 88.13 8.82L88.13 8.82L88.13 8.82Q87.78 9.39 87.78 10.21L87.78 10.21L87.78 10.21Q87.78 11.03 87.96 11.56L87.96 11.56L87.96 11.56Q88.14 12.09 88.48 12.47L88.48 12.47L88.48 12.47Q89.20 13.26 90.51 13.26L90.51 13.26L90.51 13.26Q91.33 13.26 92.07 12.85L92.07 12.85L92.07 12.85Q91.21 13.78 89.89 14.10L89.89 14.10L89.89 14.10Q89.48 14.19 88.97 14.19L88.97 14.19L88.97 14.19Q88.46 14.19 87.97 13.98L87.97 13.98L87.97 13.98Q87.48 13.77 87.14 13.39L87.14 13.39L87.14 13.39Q86.43 12.62 86.43 11.39L86.43 11.39L86.43 11.39Q86.43 10.39 87.12 9.38L87.12 9.38L87.12 9.38Q88.14 7.90 89.81 7.37L89.81 7.37L89.81 7.37Q90.33 7.20 90.75 7.20L90.75 7.20L90.75 7.20Q91.75 7.20 92.24 7.57L92.24 7.57L92.24 7.57Q92.30 7.61 92.30 7.68L92.30 7.68L92.30 7.68Q92.30 7.92 91.30 8.57L91.30 8.57L91.30 8.57Q90.95 8.79 90.84 8.79ZM93.62 8.16L92.73 8.16L93.62 7.46L93.62 6.49L93.62 6.49Q93.99 6.23 94.14 6.09L94.14 6.09L94.14 6.09Q94.30 5.95 94.41 5.89L94.41 5.89L94.41 5.89Q94.52 5.83 94.64 5.76L94.64 5.76L94.64 5.76Q94.93 5.59 94.95 5.56L94.95 5.56L94.95 7.23L97.14 7.23L97.14 7.23Q97.05 7.23 96.69 7.55L96.69 7.55L96.69 7.55Q96.00 8.16 95.81 8.16L95.81 8.16L94.95 8.16L94.95 11.82L94.95 11.82Q94.95 13.08 95.68 13.28L95.68 13.28L95.68 13.28Q95.89 13.33 96.09 13.33L96.09 13.33L96.09 13.33Q96.40 13.33 96.62 13.24L96.62 13.24L96.62 13.24Q96.84 13.15 96.98 13.07L96.98 13.07L96.98 13.07Q96.56 13.71 95.81 14.04L95.81 14.04L95.81 14.04Q95.42 14.21 94.98 14.21L94.98 14.21L94.98 14.21Q94.53 14.21 94.28 14.05L94.28 14.05L94.28 14.05Q94.04 13.90 93.88 13.64L93.88 13.64L93.88 13.64Q93.62 13.18 93.62 12.41L93.62 12.41L93.62 8.16ZM98.29 3.41L99.61 2.48L99.65 3.26L99.65 3.62L99.65 3.62Q99.65 3.94 99.57 4.02L99.57 4.02L99.57 4.02Q99.49 4.09 99.39 4.16L99.39 4.16L99.39 4.16Q99.01 4.43 98.29 4.89L98.29 4.89L98.29 4.89Q98.32 4.21 98.32 4.19L98.32 4.19L98.32 4.19Q98.32 4.16 98.29 3.41L98.29 3.41ZM101.04 13.24L101.04 13.24L101.04 13.24Q100.84 13.41 100.64 13.58L100.64 13.58L100.64 13.58Q100.45 13.75 100.24 13.89L100.24 13.89L100.24 13.89Q99.74 14.21 99.29 14.21L99.29 14.21L99.29 14.21Q98.87 14.21 98.70 14.08L98.70 14.08L98.70 14.08Q98.35 13.82 98.35 13.13L98.35 13.13L98.35 9.88L98.35 9.88Q98.35 9.15 98.08 8.93L98.08 8.93L98.08 8.93Q97.96 8.83 97.82 8.83L97.82 8.83L97.82 8.83Q97.67 8.83 97.57 8.84L97.57 8.84L97.57 8.84Q97.47 8.86 97.37 8.88L97.37 8.88L97.37 8.88Q97.27 8.90 97.16 8.92L97.16 8.92L97.16 8.92Q97.50 8.65 97.80 8.44L97.80 8.44L97.80 8.44Q98.10 8.23 98.31 8.09L98.31 8.09L98.31 8.09Q98.52 7.94 98.90 7.68L98.90 7.68L98.90 7.68Q99.27 7.42 99.67 7.21L99.67 7.21L99.67 12.03L99.67 12.03Q99.67 12.73 99.76 12.91L99.76 12.91L99.76 12.91Q99.96 13.29 100.61 13.29L100.61 13.29L100.61 13.29Q100.79 13.29 101.04 13.24ZM107.32 8.18L107.32 8.18L107.32 8.18Q107.67 8.57 107.87 9.08L107.87 9.08L107.87 9.08Q108.06 9.59 108.06 10.10L108.06 10.10L108.06 10.10Q108.06 10.62 107.91 11.10L107.91 11.10L107.91 11.10Q107.76 11.59 107.49 12.04L107.49 12.04L107.49 12.04Q107.22 12.50 106.86 12.89L106.86 12.89L106.86 12.89Q106.49 13.28 106.05 13.58L106.05 13.58L106.05 13.58Q105.12 14.20 104.17 14.20L104.17 14.20L104.17 14.20Q103.06 14.20 102.28 13.33L102.28 13.33L102.28 13.33Q101.52 12.50 101.52 11.38L101.52 11.38L101.52 11.38Q101.52 10.42 102.10 9.45L102.10 9.45L102.10 9.45Q102.97 7.99 104.47 7.48L104.47 7.48L104.47 7.48Q104.95 7.31 105.48 7.31L105.48 7.31L105.48 7.31Q106.01 7.31 106.49 7.54L106.49 7.54L106.49 7.54Q106.98 7.78 107.32 8.18ZM104.09 8.22L104.09 8.22L104.09 8.22Q103.41 8.22 103.09 8.89L103.09 8.89L103.09 8.89Q102.85 9.41 102.85 10.06L102.85 10.06L102.85 10.06Q102.85 10.72 103.02 11.28L103.02 11.28L103.02 11.28Q103.20 11.85 103.54 12.29L103.54 12.29L103.54 12.29Q104.30 13.29 105.49 13.29L105.49 13.29L105.49 13.29Q106.19 13.29 106.50 12.59L106.50 12.59L106.50 12.59Q106.73 12.07 106.73 11.40L106.73 11.40L106.73 11.40Q106.73 10.08 105.99 9.15L105.99 9.15L105.99 9.15Q105.26 8.22 104.09 8.22ZM109.85 13.62L109.85 13.62L109.86 9.22L109.86 9.22Q109.86 8.76 109.74 8.61L109.74 8.61L109.74 8.61Q109.53 8.33 109.15 8.33L109.15 8.33L109.15 8.33Q108.77 8.33 108.48 8.44L108.48 8.44L108.48 8.44Q108.66 8.37 108.94 8.12L108.94 8.12L108.94 8.12Q109.47 7.64 109.69 7.55L109.69 7.55L109.69 7.55Q110.10 7.39 110.41 7.39L110.41 7.39L110.41 7.39Q110.72 7.39 110.88 7.49L110.88 7.49L110.88 7.49Q111.03 7.59 111.10 7.77L111.10 7.77L111.10 7.77Q111.19 7.98 111.19 8.57L111.19 8.57L111.19 8.57Q112.46 7.44 113.58 7.44L113.58 7.44L113.58 7.44Q114.19 7.44 114.64 7.83L114.64 7.83L114.64 7.83Q115.11 8.24 115.11 8.83L115.11 8.83L115.11 12.20L115.11 12.20Q115.11 12.71 115.22 12.90L115.22 12.90L115.22 12.90Q115.42 13.26 115.90 13.26L115.90 13.26L115.90 13.26Q116.18 13.26 116.42 13.16L116.42 13.16L116.42 13.16Q115.81 13.69 115.58 13.84L115.58 13.84L115.58 13.84Q115.05 14.18 114.65 14.18L114.65 14.18L114.65 14.18Q114.25 14.18 114.08 14.04L114.08 14.04L114.08 14.04Q113.91 13.90 113.85 13.68L113.85 13.68L113.85 13.68Q113.77 13.44 113.77 12.70L113.77 12.70L113.77 10.14L113.77 10.14Q113.77 8.92 112.97 8.53L112.97 8.53L112.97 8.53Q112.68 8.39 112.28 8.39L112.28 8.39L112.28 8.39Q111.29 8.39 111.21 9.86L111.21 9.86L111.21 9.86Q111.19 10.23 111.19 10.53L111.19 10.53L111.19 12.64L111.19 12.64Q111.19 13.08 111.45 13.23L111.45 13.23L111.45 13.23Q111.55 13.30 111.69 13.30L111.69 13.30L111.69 13.30Q111.84 13.30 111.99 13.23L111.99 13.23L111.99 13.23Q111.85 13.35 111.65 13.52L111.65 13.52L111.65 13.52Q111.45 13.69 111.23 13.85L111.23 13.85L111.23 13.85Q110.69 14.22 110.37 14.22L110.37 14.22L110.37 14.22Q109.85 14.22 109.85 13.62Z"></path></g><!----><!----></svg>